<?xml version="1.0" standalone="no"?>
<!DOCTYPE svg PUBLIC "-//W3C//DTD SVG 20010904//EN"
 "http://www.w3.org/TR/2001/REC-SVG-20010904/DTD/svg10.dtd">
<svg version="1.0" xmlns="http://www.w3.org/2000/svg"
 width="300.000000pt" height="280.000000pt" viewBox="0 0 300.000000 280.000000"
 preserveAspectRatio="xMidYMid meet">
<metadata>
Created by potrace 1.10, written by Peter Selinger 2001-2011
</metadata>
<g transform="translate(0.000000,280.000000) scale(0.100000,-0.100000)"
fill="#000000" stroke="none">
<path d="M1280 2574 c-153 -28 -311 -90 -440 -172 -85 -54 -42 -49 62 7 376
203 747 209 1126 19 78 -39 145 -69 148 -66 17 18 -224 146 -326 174 -153 41
-182 46 -335 49 -107 2 -185 -1 -235 -11z"/>
<path d="M688 2369 c-19 -11 -148 -187 -148 -202 0 -5 7 -6 16 -3 12 5 9 -4
-9 -26 -106 -132 -205 -337 -232 -478 -3 -19 -8 -46 -11 -60 -24 -133 -24
-300 1 -410 3 -14 8 -40 11 -59 15 -88 85 -256 157 -376 66 -110 212 -263 327
-342 144 -99 341 -177 504 -201 66 -9 309 -9 361 0 22 4 56 10 75 14 19 3 76
19 125 36 421 142 723 493 806 938 18 96 16 309 -5 413 -34 176 -111 352 -212
487 -29 38 -45 66 -36 63 12 -5 14 -2 9 11 -11 28 -105 160 -131 185 l-24 23
-59 -30 c-124 -61 -434 -268 -457 -305 -6 -9 -8 -19 -4 -22 8 -9 52 14 293
155 114 66 214 120 224 120 20 0 115 -93 105 -103 -4 -4 -2 -7 4 -7 7 0 12 -9
12 -19 0 -11 25 -56 55 -100 30 -44 55 -83 55 -85 0 -3 13 -26 29 -53 41 -67
96 -239 117 -362 56 -344 -62 -718 -309 -978 -169 -178 -407 -306 -646 -349
-98 -17 -314 -17 -412 0 -358 64 -679 303 -836 621 -197 400 -172 815 72 1185
31 47 59 98 62 113 7 35 102 137 127 137 10 0 97 -47 194 -103 250 -147 312
-180 320 -173 13 13 -16 42 -112 111 -103 76 -381 246 -398 245 -2 0 -11 -5
-20 -11z"/>
<path d="M740 1885 c-62 -18 -150 -71 -150 -91 0 -10 12 -11 53 -6 69 9 385 9
465 0 49 -6 63 -5 60 5 -7 19 -78 64 -133 82 -70 24 -226 29 -295 10z m210
-35 c16 -5 -10 -8 -75 -9 -68 0 -95 2 -85 9 18 11 124 11 160 0z"/>
<path d="M1874 1887 c-74 -19 -179 -85 -163 -102 3 -2 34 0 69 5 84 13 322 13
425 1 44 -5 84 -6 89 -1 11 11 -57 56 -125 81 -68 26 -222 34 -295 16z m206
-37 c16 -5 -13 -8 -80 -8 -67 0 -98 3 -85 8 25 11 132 11 165 0z"/>
<path d="M1215 1453 c-257 -8 -577 -25 -639 -34 -125 -17 -116 -12 -116 -77 0
-86 34 -203 94 -327 92 -188 230 -327 411 -416 142 -69 247 -93 415 -93 196
-1 336 39 489 138 236 152 426 453 438 691 2 44 0 86 -5 94 -6 8 -41 17 -88
22 -71 7 -778 9 -999 2z m165 -478 l0 -455 -60 0 c-94 0 -291 47 -320 76 -13
13 -18 823 -5 828 6 3 94 5 198 5 l187 1 0 -455z m410 46 l0 -409 -42 -20
c-75 -35 -186 -63 -273 -69 l-85 -6 0 457 0 456 200 0 200 0 0 -409z m420 224
c0 -181 -1 -187 -26 -238 -42 -83 -108 -169 -187 -244 -75 -71 -157 -133 -176
-133 -8 0 -11 123 -11 400 l0 400 200 0 200 0 0 -185z m81 163 c14 -26 7 -102
-17 -183 l-18 -60 -7 47 c-4 26 -6 80 -5 120 1 40 -2 79 -7 86 -7 9 -3 12 16
12 17 0 31 -8 38 -22z m-1326 -393 c0 -333 -2 -404 -13 -400 -72 27 -240 175
-307 270 -72 101 -75 113 -75 331 l0 193 68 4 c37 2 126 4 197 5 l130 2 0
-405z m-435 270 c-4 -150 -3 -145 -12 -145 -4 0 -10 12 -14 28 -3 15 -12 50
-20 79 -8 28 -14 71 -14 96 0 39 3 46 23 50 12 2 26 3 31 3 5 -1 7 -51 6 -111z"/>
</g>
</svg>
